<svg width="28" height="17" viewBox="0 0 28 17" fill="none" xmlns="http://www.w3.org/2000/svg">
<g clip-path="url(#clip0_2114_41237)">
<path d="M2 8.1245C2.34688 7.47888 2.88562 7.2745 3.6125 7.27638C10.5375 7.29513 17.4625 7.29513 24.3869 7.27638C25.1138 7.2745 25.6525 7.47825 26 8.1245V8.8745C25.6456 9.54825 25.0763 9.7245 24.34 9.722C17.4462 9.70325 10.5531 9.70325 3.65937 9.722C2.92312 9.72388 2.35313 9.5495 2 8.8745L2 8.1245Z" fill="#303030"/>
<path d="M25.9995 1.65664C25.6739 2.29601 25.162 2.51414 24.4414 2.51101C19.3976 2.48789 14.3533 2.50039 9.30951 2.49726C8.30451 2.49726 7.68951 1.58039 8.13201 0.747888C8.38514 0.271638 8.81201 0.0822634 9.33389 0.0816384C10.3958 0.0797634 11.4576 0.0810134 12.5195 0.0810134C16.4545 0.0810134 20.3901 0.0928884 24.3251 0.0703884C25.0583 0.0660134 25.6295 0.249763 25.9995 0.907263V1.65726V1.65664Z" fill="#303030"/>
<path d="M25.9998 16.094C25.6292 16.7497 25.0585 16.9365 24.3254 16.9309C21.0142 16.9065 17.7029 16.9203 14.391 16.9197C14.2198 16.9197 14.0454 16.9259 13.8767 16.9003C13.2185 16.8009 12.7592 16.2615 12.7917 15.6422C12.826 14.9872 13.3398 14.5053 14.0385 14.5047C17.6154 14.5003 21.1923 14.5065 24.7692 14.499C25.3898 14.4978 25.7223 14.869 25.9992 15.3447V16.0947L25.9998 16.094Z" fill="#303030"/>
</g>
<defs>
<clipPath id="clip0_2114_41237">
<rect width="24" height="16.8612" fill="white" transform="translate(2 0.0693359)"/>
</clipPath>
</defs>
</svg>
