<svg width="25" height="24" viewBox="0 0 25 24" fill="none" xmlns="http://www.w3.org/2000/svg">
<path d="M8.5 2.74951H5.5C4.25736 2.74951 3.25 3.75687 3.25 4.99951V18.9995C3.25 20.2422 4.25736 21.2495 5.5 21.2495H8.5C9.74264 21.2495 10.75 20.2422 10.75 18.9995V4.99951C10.75 3.75687 9.74264 2.74951 8.5 2.74951Z" stroke="#5932EA" stroke-width="1.5"/>
<path d="M19.5 2.74951H16.5C15.2574 2.74951 14.25 3.75687 14.25 4.99951V7.99951C14.25 9.24215 15.2574 10.2495 16.5 10.2495H19.5C20.7426 10.2495 21.75 9.24215 21.75 7.99951V4.99951C21.75 3.75687 20.7426 2.74951 19.5 2.74951Z" stroke="#5932EA" stroke-width="1.5"/>
<path d="M19.5 13.7495H16.5C15.2574 13.7495 14.25 14.7569 14.25 15.9995V18.9995C14.25 20.2422 15.2574 21.2495 16.5 21.2495H19.5C20.7426 21.2495 21.75 20.2422 21.75 18.9995V15.9995C21.75 14.7569 20.7426 13.7495 19.5 13.7495Z" stroke="#5932EA" stroke-width="1.5"/>
</svg>
