<svg width="24" height="24" viewBox="0 0 24 24" fill="none" xmlns="http://www.w3.org/2000/svg">
<path fill-rule="evenodd" clip-rule="evenodd" d="M19.9449 7.20814L14.6166 3.26939C13.058 2.13156 10.9427 2.13156 9.38408 3.26939L4.06533 7.20814C3.03554 7.95002 2.42284 9.1398 2.41699 10.409V17.5294C2.47452 19.8229 4.37836 21.6367 6.67199 21.5831H17.3287C19.6223 21.6367 21.5261 19.8229 21.5837 17.5294V10.3994C21.5754 9.1357 20.9671 7.95112 19.9449 7.20814ZM20.1462 17.5294C20.089 19.0292 18.8285 20.1996 17.3287 20.1456H6.67199C5.17409 20.1943 3.91681 19.0268 3.85449 17.5294V10.409C3.85961 9.59432 4.25524 8.83156 4.91824 8.35814L10.237 4.42898C11.2874 3.6619 12.7132 3.6619 13.7637 4.42898L19.0824 8.36773C19.7449 8.83292 20.1412 9.58994 20.1462 10.3994V17.5294ZM7.68783 15.5936H16.3128C16.7098 15.5936 17.0316 15.9154 17.0316 16.3123C17.0316 16.7093 16.7098 17.0311 16.3128 17.0311H7.68783C7.29087 17.0311 6.96908 16.7093 6.96908 16.3123C6.96908 15.9154 7.29087 15.5936 7.68783 15.5936Z" fill="#303030"/>
</svg>
