<svg width="25" height="24" viewBox="0 0 25 24" fill="none" xmlns="http://www.w3.org/2000/svg">
<path d="M15.3009 8.93941L9.53086 14.7094C9.23841 15.0022 9.23841 15.4766 9.53086 15.7694C9.67075 15.911 9.8618 15.9904 10.0609 15.9894C10.2602 15.9915 10.4516 15.912 10.5909 15.7694L16.3609 9.99941C16.5615 9.81244 16.6441 9.53086 16.5762 9.26512C16.5084 8.99939 16.3009 8.79189 16.0352 8.72403C15.7694 8.65616 15.4878 8.73876 15.3009 8.93941Z" fill="#303030"/>
<circle cx="10.3506" cy="10.0996" r="0.75" fill="#303030"/>
<circle cx="15.6309" cy="14.6099" r="0.75" fill="#303030"/>
<path fill-rule="evenodd" clip-rule="evenodd" d="M23.1397 8.22109C23.47 9.07626 23.2535 10.0461 22.5908 10.6796C22.1112 11.1084 21.837 11.7213 21.837 12.3646C21.837 13.008 22.1112 13.6209 22.5908 14.0496C23.2828 14.6783 23.5185 15.667 23.1847 16.5403C22.8508 17.4135 22.0157 17.9928 21.0808 17.9996H20.8308C20.2101 18.0044 19.6181 18.262 19.1916 18.7131C18.765 19.1641 18.5409 19.7696 18.5709 20.3896C18.604 21.013 18.3779 21.6224 17.946 22.0732C17.5142 22.524 16.9151 22.776 16.2908 22.7696C15.6554 22.7699 15.0506 22.4967 14.6308 22.0196C14.2004 21.5428 13.5882 21.2707 12.9458 21.2707C12.3035 21.2707 11.6913 21.5428 11.2608 22.0196C10.8411 22.4967 10.2363 22.7699 9.60085 22.7696C8.97293 22.7764 8.37051 22.5216 7.938 22.0663C7.5055 21.6111 7.28191 20.9964 7.32085 20.3696C7.34802 19.7513 7.12261 19.1484 6.69639 18.6996C6.27018 18.2507 5.6798 17.9945 5.06085 17.9896H4.81085C3.9165 17.9472 3.13065 17.383 2.80446 16.5492C2.47828 15.7153 2.6727 14.7677 3.30085 14.1296C3.77717 13.701 4.04916 13.0904 4.04916 12.4496C4.04916 11.8089 3.77717 11.1982 3.30085 10.7696C2.56957 10.1487 2.30758 9.13509 2.6464 8.23757C2.98521 7.34005 3.85166 6.75242 4.81085 6.76964H5.06085C5.68807 6.76824 6.28675 6.5074 6.71485 6.04899C7.14295 5.59059 7.3623 4.97548 7.32085 4.34964C7.29898 3.73302 7.53017 3.13428 7.96075 2.69236C8.39133 2.25045 8.98388 2.00379 9.60085 2.00964C10.2387 2.00791 10.8454 2.28564 11.2608 2.76964C11.6955 3.24235 12.3087 3.51084 12.9508 3.50964C13.5895 3.50804 14.1985 3.23979 14.6308 2.76964C15.0445 2.28192 15.6514 2.00041 16.2908 1.99964C16.9169 1.99306 17.5177 2.2465 17.9498 2.69952C18.382 3.15255 18.6069 3.76457 18.5709 4.38964C18.5408 5.00877 18.7653 5.61325 19.1921 6.06275C19.6189 6.51224 20.211 6.76763 20.8308 6.76964H21.0808C21.9973 6.79334 22.8095 7.36593 23.1397 8.22109ZM21.4909 15.8796C21.5733 15.7055 21.5234 15.4974 21.3708 15.3796V15.3196C20.5328 14.5472 20.0561 13.4594 20.0561 12.3196C20.0561 11.1799 20.5328 10.0921 21.3708 9.31964C21.5234 9.20188 21.5733 8.99379 21.4909 8.81964C21.4334 8.64291 21.2666 8.52495 21.0809 8.52964H20.8309C19.7152 8.52742 18.6492 8.06848 17.8808 7.25964C17.1193 6.45096 16.7155 5.36957 16.7608 4.25964C16.7776 4.14029 16.7411 4.01959 16.6608 3.92964C16.564 3.82872 16.4307 3.77105 16.2908 3.76964C16.1483 3.75643 16.0089 3.81673 15.9208 3.92964C15.1528 4.77701 14.0645 5.26316 12.9208 5.26964C11.7775 5.26193 10.6896 4.776 9.92085 3.92964C9.84337 3.83127 9.72603 3.7726 9.60085 3.76964C9.46102 3.77105 9.32765 3.82872 9.23085 3.92964C9.15063 4.01959 9.11406 4.14029 9.13085 4.25964C9.19692 5.38093 8.7978 6.47987 8.02756 7.29743C7.25731 8.11498 6.18409 8.57883 5.06085 8.57964H4.84085C4.64519 8.56458 4.46416 8.68389 4.40085 8.86964C4.31838 9.04379 4.36832 9.25188 4.52085 9.36964C5.3662 10.1391 5.85192 11.2266 5.86085 12.3696C5.85437 13.5132 5.36823 14.6016 4.52085 15.3696C4.36832 15.4874 4.31838 15.6955 4.40085 15.8696C4.45163 16.0525 4.62123 16.1766 4.81085 16.1696H5.06085C6.17585 16.1739 7.24078 16.6332 8.00913 17.4412C8.77749 18.2492 9.18265 19.3358 9.13085 20.4496C9.11278 20.566 9.14972 20.6842 9.23085 20.7696C9.33889 20.8774 9.4888 20.9322 9.64085 20.9196C9.76379 20.9166 9.87983 20.8622 9.96085 20.7696C10.731 19.9093 11.8311 19.4176 12.9858 19.4176C14.1406 19.4176 15.2407 19.9093 16.0108 20.7696C16.0806 20.8565 16.1806 20.9137 16.2908 20.9296C16.4307 20.9282 16.564 20.8706 16.6608 20.7696C16.742 20.6842 16.7789 20.566 16.7608 20.4496C16.72 19.3404 17.1231 18.2607 17.8808 17.4496C18.6519 16.6447 19.7162 16.1865 20.8309 16.1796H21.0508C21.2503 16.1973 21.4344 16.0717 21.4909 15.8796Z" fill="#303030"/>
</svg>
