<svg width="25" height="24" viewBox="0 0 25 24" fill="none" xmlns="http://www.w3.org/2000/svg">
<path d="M19.9298 12.9795C19.9698 12.6595 19.9998 12.3395 19.9998 11.9995C19.9998 11.6595 19.9698 11.3395 19.9298 11.0195L22.0398 9.36951C22.2298 9.21951 22.2798 8.94951 22.1598 8.72951L20.1598 5.26951C20.0698 5.10951 19.8998 5.01951 19.7198 5.01951C19.6598 5.01951 19.5998 5.02951 19.5498 5.04951L17.0598 6.04951C16.5398 5.64951 15.9798 5.31951 15.3698 5.06951L14.9898 2.41951C14.9598 2.17951 14.7498 1.99951 14.4998 1.99951H10.4998C10.2498 1.99951 10.0398 2.17951 10.0098 2.41951L9.62984 5.06951C9.01984 5.31951 8.45984 5.65951 7.93984 6.04951L5.44984 5.04951C5.38984 5.02951 5.32984 5.01951 5.26984 5.01951C5.09984 5.01951 4.92984 5.10951 4.83984 5.26951L2.83984 8.72951C2.70984 8.94951 2.76984 9.21951 2.95984 9.36951L5.06984 11.0195C5.02984 11.3395 4.99984 11.6695 4.99984 11.9995C4.99984 12.3295 5.02984 12.6595 5.06984 12.9795L2.95984 14.6295C2.76984 14.7795 2.71984 15.0495 2.83984 15.2695L4.83984 18.7295C4.92984 18.8895 5.09984 18.9795 5.27984 18.9795C5.33984 18.9795 5.39984 18.9695 5.44984 18.9495L7.93984 17.9495C8.45984 18.3495 9.01984 18.6795 9.62984 18.9295L10.0098 21.5795C10.0398 21.8195 10.2498 21.9995 10.4998 21.9995H14.4998C14.7498 21.9995 14.9598 21.8195 14.9898 21.5795L15.3698 18.9295C15.9798 18.6795 16.5398 18.3395 17.0598 17.9495L19.5498 18.9495C19.6098 18.9695 19.6698 18.9795 19.7298 18.9795C19.8998 18.9795 20.0698 18.8895 20.1598 18.7295L22.1598 15.2695C22.2798 15.0495 22.2298 14.7795 22.0398 14.6295L19.9298 12.9795ZM17.9498 11.2695C17.9898 11.5795 17.9998 11.7895 17.9998 11.9995C17.9998 12.2095 17.9798 12.4295 17.9498 12.7295L17.8098 13.8595L18.6998 14.5595L19.7798 15.3995L19.0798 16.6095L17.8098 16.0995L16.7698 15.6795L15.8698 16.3595C15.4398 16.6795 15.0298 16.9195 14.6198 17.0895L13.5598 17.5195L13.3998 18.6495L13.1998 19.9995H11.7998L11.6098 18.6495L11.4498 17.5195L10.3898 17.0895C9.95984 16.9095 9.55984 16.6795 9.15984 16.3795L8.24984 15.6795L7.18984 16.1095L5.91984 16.6195L5.21984 15.4095L6.29984 14.5695L7.18984 13.8695L7.04984 12.7395C7.01984 12.4295 6.99984 12.1995 6.99984 11.9995C6.99984 11.7995 7.01984 11.5695 7.04984 11.2695L7.18984 10.1395L6.29984 9.43951L5.21984 8.59951L5.91984 7.38951L7.18984 7.89951L8.22984 8.31951L9.12984 7.63951C9.55984 7.31951 9.96984 7.07951 10.3798 6.90951L11.4398 6.47951L11.5998 5.34951L11.7998 3.99951H13.1898L13.3798 5.34951L13.5398 6.47951L14.5998 6.90951C15.0298 7.08951 15.4298 7.31951 15.8298 7.61951L16.7398 8.31951L17.7998 7.88951L19.0698 7.37951L19.7698 8.58951L18.6998 9.43951L17.8098 10.1395L17.9498 11.2695ZM12.4998 7.99951C10.2898 7.99951 8.49984 9.78951 8.49984 11.9995C8.49984 14.2095 10.2898 15.9995 12.4998 15.9995C14.7098 15.9995 16.4998 14.2095 16.4998 11.9995C16.4998 9.78951 14.7098 7.99951 12.4998 7.99951ZM12.4998 13.9995C11.3998 13.9995 10.4998 13.0995 10.4998 11.9995C10.4998 10.8995 11.3998 9.99951 12.4998 9.99951C13.5998 9.99951 14.4998 10.8995 14.4998 11.9995C14.4998 13.0995 13.5998 13.9995 12.4998 13.9995Z" fill="#303030"/>
</svg>
